<svg width="30" height="30" viewBox="0 0 30 30" fill="none" xmlns="http://www.w3.org/2000/svg">
<g opacity="0.8">
<path d="M15.7809 2.97538L15.7814 2.97581L27.0309 14.2254C27.031 14.2255 27.0311 14.2255 27.0312 14.2256C27.133 14.3283 27.2136 14.4502 27.2683 14.5841C27.323 14.7181 27.3508 14.8616 27.3499 15.0064V15.0072C27.3499 15.299 27.234 15.5788 27.0277 15.7851C26.8215 15.9914 26.5417 16.1072 26.2499 16.1072H24.9999H24.8499V16.2572V25.0072C24.8499 25.6305 24.6023 26.2282 24.1616 26.6689C23.7209 27.1097 23.1232 27.3572 22.4999 27.3572H7.49992C6.87667 27.3572 6.27893 27.1097 5.83822 26.6689C5.39751 26.2282 5.14992 25.6305 5.14992 25.0072V16.2572V16.1072H4.99992L3.74992 16.1072L3.74906 16.1073C3.60429 16.1081 3.46078 16.0803 3.32676 16.0256L3.27004 16.1645L3.32676 16.0256C3.19274 15.9709 3.07084 15.8902 2.96806 15.7883L2.86242 15.8947L2.96805 15.7882C2.86495 15.686 2.78312 15.5643 2.72727 15.4303L2.58913 15.4878L2.72727 15.4303C2.67143 15.2962 2.64268 15.1525 2.64268 15.0072C2.64268 14.862 2.67143 14.7183 2.72727 14.5842L2.58913 14.5267L2.72727 14.5842C2.78312 14.4502 2.86495 14.3285 2.96805 14.2262L2.96849 14.2258L14.2185 2.97581L14.2189 2.97538C14.3212 2.87228 14.4428 2.79044 14.5769 2.7346L14.5193 2.59645L14.5769 2.7346C14.7109 2.67875 14.8547 2.65 14.9999 2.65C15.1451 2.65 15.2889 2.67875 15.423 2.7346L15.4805 2.59645L15.423 2.7346C15.557 2.79044 15.6787 2.87228 15.7809 2.97538ZM27.1338 15.8911C27.3682 15.6567 27.4999 15.3388 27.4999 15.0072L4.84992 16.2572H4.99992V16.4072V25.0072C4.99992 25.6703 5.26332 26.3062 5.73216 26.775C6.201 27.2439 6.83688 27.5072 7.49992 27.5072H22.4999C23.163 27.5072 23.7988 27.2439 24.2677 26.775C24.7365 26.3062 24.9999 25.6703 24.9999 25.0072V16.4072V16.2572H25.1499H26.2499C26.5814 16.2572 26.8994 16.1256 27.1338 15.8911ZM7.34992 25.0072V25.1572H7.49992H22.4999H22.6499V25.0072V13.0197V12.9576L22.606 12.9137L15.106 5.41368L14.9999 5.30762L14.8939 5.41368L7.39386 12.9137L7.34992 12.9576V13.0197V25.0072Z" fill="white" stroke="#101010" stroke-width="0.3"/>
</g>
</svg>
