<svg width="30" height="30" viewBox="0 0 30 30" fill="none" xmlns="http://www.w3.org/2000/svg">
<path d="M26.2099 23.06C26.1978 23.4915 26.0991 23.9161 25.9196 24.3086C25.7402 24.7012 25.4837 25.0537 25.1654 25.3452C24.8471 25.6367 24.4734 25.8612 24.0667 26.0055C23.6599 26.1498 23.2282 26.2108 22.7974 26.185C20.1061 26.2 17.4149 26.185 14.7236 26.185C14.5579 26.185 14.3989 26.1192 14.2817 26.002C14.1645 25.8847 14.0986 25.7258 14.0986 25.56C14.0986 25.3943 14.1645 25.2353 14.2817 25.1181C14.3989 25.0009 14.5579 24.935 14.7236 24.935C17.4736 24.935 20.2236 24.975 22.9736 24.935C24.3574 24.915 24.9599 23.875 24.9599 22.6375V7.05877C24.9688 6.6655 24.8579 6.27882 24.6417 5.95014C24.4256 5.62147 24.1145 5.36637 23.7499 5.21877C23.3184 5.10039 22.8693 5.06017 22.4236 5.10002H14.7236C14.5579 5.10002 14.3989 5.03417 14.2817 4.91696C14.1645 4.79975 14.0986 4.64078 14.0986 4.47502C14.0986 4.30926 14.1645 4.15029 14.2817 4.03308C14.3989 3.91587 14.5579 3.85002 14.7236 3.85002C17.5036 3.85002 20.3049 3.74377 23.0824 3.85002C23.5077 3.86077 23.9267 3.95602 24.3149 4.1302C24.7031 4.30438 25.0527 4.55402 25.3435 4.86461C25.6343 5.17519 25.8605 5.5405 26.0088 5.93929C26.1571 6.33809 26.2246 6.76239 26.2074 7.18752L26.2099 23.06Z" fill="white"/>
<path d="M3.9701 14.5787C3.86502 14.6815 3.8033 14.8206 3.7976 14.9675C3.79926 14.985 3.79676 15.0029 3.7901 15.0212C3.7801 15.0487 3.7901 15.055 3.7976 15.0725C3.80298 15.2198 3.86473 15.3594 3.9701 15.4625L8.55635 20.0487C8.67422 20.1626 8.8321 20.2256 8.99597 20.2242C9.15984 20.2227 9.3166 20.157 9.43248 20.0411C9.54836 19.9252 9.61409 19.7685 9.61552 19.6046C9.61694 19.4407 9.55395 19.2829 9.4401 19.165L5.92135 15.645H19.3488C19.5146 15.645 19.6736 15.5791 19.7908 15.4619C19.908 15.3447 19.9738 15.1858 19.9738 15.02C19.9738 14.8542 19.908 14.6953 19.7908 14.578C19.6736 14.4608 19.5146 14.395 19.3488 14.395H5.92135L9.4401 10.875C9.55395 10.7571 9.61694 10.5992 9.61552 10.4354C9.61409 10.2715 9.54836 10.1147 9.43248 9.99885C9.3166 9.88297 9.15984 9.81724 8.99597 9.81582C8.8321 9.8144 8.67422 9.87739 8.55635 9.99124L3.9701 14.5787Z" fill="white"/>
</svg>
