<svg width="30" height="30" viewBox="0 0 30 30" fill="none" xmlns="http://www.w3.org/2000/svg">
<mask id="path-1-inside-1_192_216" fill="white">
<path d="M26.4305 0.880646L21.518 1.85565L24.943 6.28065L27.4055 5.78065L26.4305 0.880646ZM17.843 2.58065L15.3805 3.06815L18.818 7.48065L21.268 6.99315L17.843 2.58065ZM11.718 3.78065L9.25553 4.29315L12.693 8.70564L15.143 8.21815L11.718 3.78065ZM5.58053 5.03065L4.35553 5.26815C4.03352 5.33164 3.72722 5.45808 3.45418 5.6402C3.18115 5.82233 2.94674 6.05656 2.76442 6.32946C2.5821 6.60236 2.45544 6.90858 2.39171 7.23053C2.32797 7.55249 2.32842 7.88386 2.39303 8.20565L2.88053 10.6556L9.00553 9.44314L5.58053 5.03065ZM25.3805 13.1556V23.1556H5.38053V13.1556H25.3805ZM27.8805 10.6556H2.88053V23.1556C2.88053 23.8187 3.14392 24.4546 3.61276 24.9234C4.0816 25.3923 4.71748 25.6556 5.38053 25.6556H25.3805C26.768 25.6556 27.8805 24.5431 27.8805 23.1556V10.6556Z"/>
</mask>
<path d="M26.4305 0.880646L21.518 1.85565L24.943 6.28065L27.4055 5.78065L26.4305 0.880646ZM17.843 2.58065L15.3805 3.06815L18.818 7.48065L21.268 6.99315L17.843 2.58065ZM11.718 3.78065L9.25553 4.29315L12.693 8.70564L15.143 8.21815L11.718 3.78065ZM5.58053 5.03065L4.35553 5.26815C4.03352 5.33164 3.72722 5.45808 3.45418 5.6402C3.18115 5.82233 2.94674 6.05656 2.76442 6.32946C2.5821 6.60236 2.45544 6.90858 2.39171 7.23053C2.32797 7.55249 2.32842 7.88386 2.39303 8.20565L2.88053 10.6556L9.00553 9.44314L5.58053 5.03065ZM25.3805 13.1556V23.1556H5.38053V13.1556H25.3805ZM27.8805 10.6556H2.88053V23.1556C2.88053 23.8187 3.14392 24.4546 3.61276 24.9234C4.0816 25.3923 4.71748 25.6556 5.38053 25.6556H25.3805C26.768 25.6556 27.8805 24.5431 27.8805 23.1556V10.6556Z" fill="white"/>
<path d="M21.518 1.85565L21.4207 1.36521L20.6279 1.52255L21.1226 2.16169L21.518 1.85565ZM24.943 6.28065L24.5476 6.58669L24.7379 6.8325L25.0425 6.77065L24.943 6.28065ZM27.4055 5.78065L27.505 6.27065L27.9931 6.17154L27.8959 5.68307L27.4055 5.78065ZM15.3805 3.06815L15.2834 2.57766L14.4874 2.73526L14.9861 3.37543L15.3805 3.06815ZM18.818 7.48065L18.4236 7.78793L18.6131 8.03122L18.9156 7.97103L18.818 7.48065ZM21.268 6.99315L21.3656 7.48353L22.1591 7.32565L21.663 6.68656L21.268 6.99315ZM11.718 3.78065L12.1138 3.47514L11.9226 3.22736L11.6161 3.29113L11.718 3.78065ZM9.25553 4.29315L9.15365 3.80363L8.36778 3.96719L8.86109 4.60043L9.25553 4.29315ZM12.693 8.70564L12.2986 9.01292L12.4881 9.25622L12.7906 9.19603L12.693 8.70564ZM15.143 8.21815L15.2406 8.70853L16.0316 8.55113L15.5388 7.91264L15.143 8.21815ZM5.58053 5.03065L5.9755 4.72406L5.78706 4.48129L5.48536 4.53979L5.58053 5.03065ZM4.35553 5.26815L4.26036 4.77728L4.25879 4.77759L4.35553 5.26815ZM2.39303 8.20565L2.88341 8.10807L2.88324 8.10723L2.39303 8.20565ZM2.88053 10.6556L2.39014 10.7532L2.48762 11.2431L2.97762 11.1461L2.88053 10.6556ZM9.00553 9.44314L9.10262 9.93363L9.89711 9.77635L9.4005 9.13656L9.00553 9.44314ZM25.3805 13.1556H25.8805V12.6556H25.3805V13.1556ZM25.3805 23.1556V23.6556H25.8805V23.1556H25.3805ZM5.38053 23.1556H4.88053V23.6556H5.38053V23.1556ZM5.38053 13.1556V12.6556H4.88053V13.1556H5.38053ZM27.8805 10.6556H28.3805V10.1556H27.8805V10.6556ZM2.88053 10.6556V10.1556H2.38053V10.6556H2.88053ZM2.88053 23.1556H2.38053H2.88053ZM26.3332 0.390212L21.4207 1.36521L21.6154 2.34608L26.5279 1.37108L26.3332 0.390212ZM21.1226 2.16169L24.5476 6.58669L25.3384 5.9746L21.9134 1.5496L21.1226 2.16169ZM25.0425 6.77065L27.505 6.27065L27.306 5.29064L24.8435 5.79064L25.0425 6.77065ZM27.8959 5.68307L26.9209 0.783069L25.9401 0.978223L26.9151 5.87822L27.8959 5.68307ZM17.7459 2.09016L15.2834 2.57766L15.4776 3.55863L17.9401 3.07113L17.7459 2.09016ZM14.9861 3.37543L18.4236 7.78793L19.2125 7.17337L15.775 2.76087L14.9861 3.37543ZM18.9156 7.97103L21.3656 7.48353L21.1704 6.50276L18.7204 6.99026L18.9156 7.97103ZM21.663 6.68656L18.238 2.27406L17.448 2.88723L20.873 7.29973L21.663 6.68656ZM11.6161 3.29113L9.15365 3.80363L9.3574 4.78266L11.8199 4.27016L11.6161 3.29113ZM8.86109 4.60043L12.2986 9.01292L13.0875 8.39837L9.64996 3.98587L8.86109 4.60043ZM12.7906 9.19603L15.2406 8.70853L15.0454 7.72776L12.5954 8.21526L12.7906 9.19603ZM15.5388 7.91264L12.1138 3.47514L11.3222 4.08615L14.7472 8.52365L15.5388 7.91264ZM5.48536 4.53979L4.26036 4.77729L4.45069 5.75901L5.67569 5.52151L5.48536 4.53979ZM4.25879 4.77759C3.87223 4.85382 3.50451 5.00561 3.17673 5.22425L3.73164 6.05616C3.94993 5.91055 4.19482 5.80946 4.45226 5.7587L4.25879 4.77759ZM3.17673 5.22425C2.84895 5.44289 2.56755 5.72408 2.34867 6.0517L3.18017 6.60722C3.32594 6.38903 3.51334 6.20177 3.73164 6.05616L3.17673 5.22425ZM2.34867 6.0517C2.12979 6.37932 1.97773 6.74693 1.90122 7.13344L2.88219 7.32762C2.93314 7.07022 3.03441 6.82541 3.18017 6.60722L2.34867 6.0517ZM1.90122 7.13344C1.82471 7.51995 1.82525 7.91776 1.90281 8.30406L2.88324 8.10723C2.83159 7.84996 2.83124 7.58503 2.88219 7.32762L1.90122 7.13344ZM1.90264 8.30322L2.39014 10.7532L3.37091 10.5581L2.88341 8.10807L1.90264 8.30322ZM2.97762 11.1461L9.10262 9.93363L8.90843 8.95266L2.78343 10.1652L2.97762 11.1461ZM9.4005 9.13656L5.9755 4.72406L5.18555 5.33723L8.61055 9.74973L9.4005 9.13656ZM24.8805 13.1556V23.1556H25.8805V13.1556H24.8805ZM25.3805 22.6556H5.38053V23.6556H25.3805V22.6556ZM5.88053 23.1556V13.1556H4.88053V23.1556H5.88053ZM5.38053 13.6556H25.3805V12.6556H5.38053V13.6556ZM27.8805 10.1556H2.88053V11.1556H27.8805V10.1556ZM2.38053 10.6556V23.1556H3.38053V10.6556H2.38053ZM2.38053 23.1556C2.38053 23.9513 2.6966 24.7144 3.25921 25.277L3.96631 24.5699C3.59124 24.1948 3.38053 23.6861 3.38053 23.1556H2.38053ZM3.25921 25.277C3.82181 25.8396 4.58488 26.1556 5.38053 26.1556V25.1556C4.85009 25.1556 4.34139 24.9449 3.96631 24.5699L3.25921 25.277ZM5.38053 26.1556H25.3805V25.1556H5.38053V26.1556ZM25.3805 26.1556C27.0442 26.1556 28.3805 24.8193 28.3805 23.1556H27.3805C27.3805 24.267 26.4919 25.1556 25.3805 25.1556V26.1556ZM28.3805 23.1556V10.6556H27.3805V23.1556H28.3805Z" fill="#101010" mask="url(#path-1-inside-1_192_216)"/>
</svg>
