<svg width="27" height="29" viewBox="0 0 27 29" fill="none" xmlns="http://www.w3.org/2000/svg">
<path d="M26 27.6667C25.2083 12.1117 1.79167 12.1117 1 27.6667M18.5 6C18.5 7.32608 17.9732 8.59785 17.0355 9.53553C16.0979 10.4732 14.8261 11 13.5 11C12.1739 11 10.9021 10.4732 9.96447 9.53553C9.02678 8.59785 8.5 7.32608 8.5 6C8.5 4.67392 9.02678 3.40215 9.96447 2.46447C10.9021 1.52678 12.1739 1 13.5 1C14.8261 1 16.0979 1.52678 17.0355 2.46447C17.9732 3.40215 18.5 4.67392 18.5 6Z" stroke="white" stroke-width="1.5" stroke-linecap="round" stroke-linejoin="round"/>
</svg>
